<?xml version="1.0" encoding="UTF-8" standalone="no"?>
<!-- Created with Inkscape (http://www.inkscape.org/) -->

<svg width="800" height="600" viewBox="0 0 800 600" version="1.1" id="svg5" inkscape:version="1.2.1 (9c6d41e410, 2022-07-14)" sodipodi:docname="gyroscope.svg" xml:space="preserve" xmlns:inkscape="http://www.inkscape.org/namespaces/inkscape" xmlns:sodipodi="http://sodipodi.sourceforge.net/DTD/sodipodi-0.dtd" xmlns:xlink="http://www.w3.org/1999/xlink" xmlns="http://www.w3.org/2000/svg" xmlns:svg="http://www.w3.org/2000/svg"><sodipodi:namedview id="namedview7" pagecolor="#ffffff" bordercolor="#666666" borderopacity="1.0" inkscape:showpageshadow="2" inkscape:pageopacity="0.0" inkscape:pagecheckerboard="0" inkscape:deskcolor="#d1d1d1" inkscape:document-units="px" showgrid="true" inkscape:zoom="1.414" inkscape:cx="267.3" inkscape:cy="311.1" inkscape:window-width="1920" inkscape:window-height="1057" inkscape:window-x="-8" inkscape:window-y="-8" inkscape:window-maximized="1" inkscape:current-layer="layer1" showguides="false"><inkscape:grid type="xygrid" id="grid132" /><sodipodi:guide position="245,380" orientation="-1,0" id="guide354" inkscape:locked="false" inkscape:label="" inkscape:color="rgb(0,134,229)" /><sodipodi:guide position="190,380" orientation="1,0" id="guide967" inkscape:locked="false" /><sodipodi:guide position="245,390" orientation="0,-1" id="guide3916" inkscape:locked="false" /><sodipodi:guide position="245,370" orientation="0,-1" id="guide3918" inkscape:locked="false" /><sodipodi:guide position="280,390" orientation="1,0" id="guide3920" inkscape:locked="false" /><sodipodi:guide position="315,390" orientation="1,0" id="guide3922" inkscape:locked="false" /><sodipodi:guide position="350,390" orientation="1,0" id="guide3924" inkscape:locked="false" /><sodipodi:guide position="385,390" orientation="1,0" id="guide3926" inkscape:locked="false" /><sodipodi:guide position="220,380" orientation="-0.5,0.866" id="guide4212" inkscape:locked="false" inkscape:label="" inkscape:color="rgb(0,134,229)" /><sodipodi:guide position="220,380" orientation="1,0" id="guide7176" inkscape:locked="false" /></sodipodi:namedview><defs id="defs2"><linearGradient inkscape:collect="always" id="linearGradient8492"><stop style="stop-color:#ffffff;stop-opacity:1;" offset="0" id="stop8486" /><stop style="stop-color:#808080;stop-opacity:1;" offset="0.5" id="stop8488" /><stop style="stop-color:#ffffff;stop-opacity:1;" offset="1" id="stop8490" /></linearGradient><linearGradient inkscape:collect="always" id="linearGradient7640"><stop style="stop-color:#ffffff;stop-opacity:1;" offset="0" id="stop7636" /><stop style="stop-color:#ffffff;stop-opacity:0;" offset="1" id="stop7638" /></linearGradient><marker style="overflow:visible" id="Arrow1L" refX="0" refY="0" orient="auto-start-reverse" inkscape:stockid="Arrow1L" markerWidth="8.75" markerHeight="5" viewBox="0 0 8.75 5" inkscape:isstock="true" inkscape:collect="always" preserveAspectRatio="xMidYMid"><path style="fill:context-stroke;fill-rule:evenodd;stroke:none" d="M 0,0 5,-5 -12.5,0 5,5 Z" id="arrow1L" transform="scale(-0.5)" /></marker><linearGradient id="linearGradient1423"><stop style="stop-color:#ffffff;stop-opacity:1;" offset="0" id="stop1437" /><stop style="stop-color:#5b5b5b;stop-opacity:1;" offset="0.5013" id="stop1439" /><stop style="stop-color:#ffffff;stop-opacity:1;" offset="1" id="stop1441" /></linearGradient><linearGradient inkscape:collect="always" xlink:href="#linearGradient8492" id="linearGradient1435" x1="215" y1="140" x2="215" y2="300" gradientUnits="userSpaceOnUse" spreadMethod="pad" /><linearGradient inkscape:collect="always" xlink:href="#linearGradient8492" id="linearGradient2136" x1="105" y1="210" x2="105" y2="230" gradientUnits="userSpaceOnUse" gradientTransform="matrix(1,0,0,0.8,-2,44)" /><linearGradient inkscape:collect="always" xlink:href="#linearGradient8492" id="linearGradient7212" x1="260" y1="210" x2="260" y2="230" gradientUnits="userSpaceOnUse" /><linearGradient inkscape:collect="always" xlink:href="#linearGradient7640" id="linearGradient7642" x1="275.8" y1="220" x2="282.2" y2="220" gradientUnits="userSpaceOnUse" /><linearGradient inkscape:collect="always" xlink:href="#linearGradient8492" id="linearGradient7662" x1="295" y1="210" x2="295" y2="230" gradientUnits="userSpaceOnUse" /><linearGradient inkscape:collect="always" xlink:href="#linearGradient8492" id="linearGradient7814" x1="330" y1="210" x2="330" y2="230" gradientUnits="userSpaceOnUse" /><linearGradient inkscape:collect="always" xlink:href="#linearGradient8492" id="linearGradient7948" x1="365" y1="210" x2="365" y2="230" gradientUnits="userSpaceOnUse" /><linearGradient inkscape:collect="always" xlink:href="#linearGradient8492" id="linearGradient7956" x1="400" y1="210" x2="400" y2="230" gradientUnits="userSpaceOnUse" /></defs><g inkscape:label="Слой 1" inkscape:groupmode="layer" id="layer1"><path id="rect2091" style="fill:url(#linearGradient2136);fill-opacity:1;stroke:#000000;stroke-width:0.894427;stroke-dasharray:none;stroke-opacity:1" d="M 33,212 A 3,8 0 0 0 30,220 3,8 0 0 0 33,228 H 178 V 212 Z" /><g id="g2114"><path id="path411" style="fill:url(#linearGradient1435);stroke-width:1;stroke:#000000;stroke-opacity:1;stroke-dasharray:none;fill-opacity:1.0" d="M 190 125 A 25 95 0 0 0 165 220 A 25 95 0 0 0 190 315 L 245 315 A 25 95 0 0 0 270 220 A 25 95 0 0 0 245 125 L 190 125 z " /><ellipse style="fill:#ffffff;stroke:#000000;stroke-width:1;stroke-dasharray:none;stroke-opacity:1;fill-opacity:1" id="path1394" cx="245" cy="220" rx="25" ry="95" /><path id="path1641" style="fill:#ffffff;fill-opacity:1;stroke:#000000;stroke-width:1;stroke-dasharray:none;stroke-opacity:1;marker-end:url(#Arrow1L)" d="M 232.9,175.9 C 231,188.7 230,204.1 230,220 230,235.9 231,251.3 232.9,264.1" sodipodi:nodetypes="csc" /></g><circle id="path1710" style="fill:#ffffff;stroke:#000000" cx="190" cy="125.2" r="0.1497" /><g id="g7204" transform="matrix(1,0,0,0.8,0,44)"><path id="rect4171" style="fill:url(#linearGradient7212);fill-opacity:1;stroke:#000000;stroke-width:0.5;stroke-dasharray:none;stroke-opacity:1" d="M 245,210 A 3,10 0 0 0 242,220 3,10 0 0 0 245,230 H 278 V 210 Z" /><ellipse style="fill:#ffffff;fill-opacity:1;stroke:#000000;stroke-width:0.5;stroke-dasharray:none;stroke-opacity:1" id="path4048-1" cx="277.9" cy="220" rx="3" ry="10" /><path id="path4050-6" style="fill:url(#linearGradient7642);fill-opacity:1;stroke:#000000;stroke-width:0.5;stroke-dasharray:none;stroke-opacity:1" d="M 278,213 A 2,7 0 0 0 276,220 2,7 0 0 0 278,227 H 282 V 213 Z" /><path id="path4058-6" style="fill:url(#linearGradient7662);fill-opacity:1;stroke:#000000;stroke-width:0.5;stroke-dasharray:none;stroke-opacity:1" d="M 282,210 A 3,10 0 0 0 279,220 3,10 0 0 0 282,230 H 313 V 210 Z" /><ellipse style="fill:#ffffff;fill-opacity:1;stroke:#000000;stroke-width:0.5;stroke-dasharray:none;stroke-opacity:1" id="path4048" cx="313" cy="220" rx="3" ry="10" /><path id="path4050" style="fill:#ffffff;fill-opacity:1;stroke:#000000;stroke-width:0.5;stroke-dasharray:none;stroke-opacity:1" d="M 313,213 A 2,7 0 0 0 311,220 2,7 0 0 0 313,227 H 317 V 213 Z" /><path id="path4058" style="fill:url(#linearGradient7814);fill-opacity:1;stroke:#000000;stroke-width:0.5;stroke-dasharray:none;stroke-opacity:1" d="M 317,210 A 3,10 0 0 0 314,220 3,10 0 0 0 317,230 H 348 V 210 Z" /><ellipse style="fill:#ffffff;fill-opacity:1;stroke:#000000;stroke-width:0.5;stroke-dasharray:none;stroke-opacity:1" id="path4048-9" cx="348" cy="220" rx="3" ry="10" /><path id="path4050-0" style="fill:#ffffff;fill-opacity:1;stroke:#000000;stroke-width:0.5;stroke-dasharray:none;stroke-opacity:1" d="M 348,213 A 2,7 0 0 0 346,220 2,7 0 0 0 348,227 H 352 V 213 Z" /><path id="path4058-2" style="fill:url(#linearGradient7948);fill-opacity:1;stroke:#000000;stroke-width:0.5;stroke-dasharray:none;stroke-opacity:1" d="M 352,210 A 3,10 0 0 0 349,220 3,10 0 0 0 352,230 H 383 V 210 Z" /><ellipse style="fill:#ffffff;fill-opacity:1;stroke:#000000;stroke-width:0.5;stroke-dasharray:none;stroke-opacity:1" id="path4048-9-7" cx="382.9" cy="220" rx="3" ry="10" /><path id="path4050-0-0" style="fill:#ffffff;fill-opacity:1;stroke:#000000;stroke-width:0.5;stroke-dasharray:none;stroke-opacity:1" d="M 383,213 A 2,7 0 0 0 381,220 2,7 0 0 0 383,227 H 387 V 213 Z" /><path id="path4058-2-2" style="fill:url(#linearGradient7956);fill-opacity:1;stroke:#000000;stroke-width:0.5;stroke-dasharray:none;stroke-opacity:1" d="M 387,210 C 385.3,210 384,214.5 384,220 384,225.5 385.3,230 387,230 H 410 V 210 Z" sodipodi:nodetypes="sssccs" /><ellipse style="fill:#ffffff;fill-opacity:1;stroke:#000000;stroke-width:0.5;stroke-dasharray:none;stroke-opacity:1" id="path4210" cx="410" cy="220" rx="3" ry="10" /></g><path style="fill:none;stroke:#000000;stroke-width:1;stroke-linecap:butt;stroke-linejoin:miter;stroke-opacity:1;marker-end:url(#Arrow1L);stroke-dasharray:none" d="M 195,234.3 64.37,309.9" id="path7180" /><path style="fill:none;stroke:#000000;stroke-width:1;stroke-linecap:butt;stroke-linejoin:miter;stroke-opacity:1;stroke-dasharray:none" d="M 269,191.7 419.2,105" id="path7182" /><path style="fill:none;stroke:#000000;stroke-width:1.28784px;stroke-linecap:butt;stroke-linejoin:miter;stroke-opacity:1;marker-end:url(#Arrow1L)" d="M 220,125 V 50.37" id="path10844" /><path style="fill:none;stroke:#000000;stroke-width:1.45297px;stroke-linecap:butt;stroke-linejoin:miter;stroke-opacity:1" d="M 220,315 V 410" id="path10846" /><path style="fill:none;stroke:#000000;stroke-width:1px;stroke-linecap:butt;stroke-linejoin:miter;stroke-opacity:1" d="M 30,220 H 18" id="path10856" /><path style="fill:none;stroke:#000000;stroke-width:1px;stroke-linecap:butt;stroke-linejoin:miter;stroke-opacity:1;marker-end:url(#Arrow1L)" d="M 410,220 H 442" id="path10858" /><ellipse style="fill:none;fill-opacity:1;stroke:#000000;stroke-width:1;stroke-dasharray:6,6;stroke-opacity:1;stroke-dashoffset:0" id="path10864" cx="220" cy="220" rx="190" ry="80" /></g></svg>
